<mxfile host="www.draw.io" modified="2019-11-19T19:53:18.540Z" agent="Mozilla/5.0 (Windows NT 10.0; WOW64) AppleWebKit/537.36 (KHTML, like Gecko) Chrome/78.0.3904.87 Safari/537.36" etag="CpOeTF83O5XknACLNhZ1" version="12.2.7" type="github" pages="1">
  <diagram id="5Wr9u8_cs3mZw3oN8rMs" name="Page-1">
    <mxGraphModel dx="768" dy="374" grid="1" gridSize="10" guides="1" tooltips="1" connect="1" arrows="1" fold="1" page="1" pageScale="1" pageWidth="850" pageHeight="1100" math="0" shadow="0">
      <root>
        <mxCell id="0"/>
        <mxCell id="1" parent="0"/>
        <mxCell id="HENk6OUo9Yx7RdCasyFM-11" style="edgeStyle=orthogonalEdgeStyle;rounded=0;orthogonalLoop=1;jettySize=auto;html=1;exitX=0.5;exitY=1;exitDx=0;exitDy=0;entryX=0.484;entryY=0;entryDx=0;entryDy=0;entryPerimeter=0;fontSize=12;" edge="1" parent="1" source="HENk6OUo9Yx7RdCasyFM-1" target="HENk6OUo9Yx7RdCasyFM-3">
          <mxGeometry relative="1" as="geometry"/>
        </mxCell>
        <mxCell id="HENk6OUo9Yx7RdCasyFM-1" value="Request" style="ellipse;whiteSpace=wrap;html=1;aspect=fixed;" vertex="1" parent="1">
          <mxGeometry x="370" width="80" height="80" as="geometry"/>
        </mxCell>
        <mxCell id="HENk6OUo9Yx7RdCasyFM-3" value="Load Balance - NetScaler" style="rounded=1;whiteSpace=wrap;html=1;fontStyle=1;fontSize=14;" vertex="1" parent="1">
          <mxGeometry x="185" y="140" width="465" height="90" as="geometry"/>
        </mxCell>
        <mxCell id="HENk6OUo9Yx7RdCasyFM-4" value="" style="rounded=1;whiteSpace=wrap;html=1;fontStyle=1;fontSize=14;fillColor=#f5f5f5;strokeColor=#666666;fontColor=#333333;" vertex="1" parent="1">
          <mxGeometry x="185" y="270" width="465" height="110" as="geometry"/>
        </mxCell>
        <mxCell id="HENk6OUo9Yx7RdCasyFM-5" value="sjprmcwsweb01~02&lt;br style=&quot;font-size: 12px&quot;&gt;(Apache)" style="rounded=1;whiteSpace=wrap;html=1;fontSize=12;fontStyle=1" vertex="1" parent="1">
          <mxGeometry x="347.5" y="306" width="135" height="38" as="geometry"/>
        </mxCell>
        <mxCell id="HENk6OUo9Yx7RdCasyFM-6" value="" style="rounded=1;whiteSpace=wrap;html=1;fontStyle=1;fontSize=14;fillColor=#dae8fc;strokeColor=#6c8ebf;" vertex="1" parent="1">
          <mxGeometry x="185" y="400" width="465" height="110" as="geometry"/>
        </mxCell>
        <mxCell id="HENk6OUo9Yx7RdCasyFM-7" value="sjprmcwsapp01~12&lt;br style=&quot;font-size: 12px&quot;&gt;(Tomcat)" style="rounded=1;whiteSpace=wrap;html=1;fontSize=12;fontStyle=1" vertex="1" parent="1">
          <mxGeometry x="350" y="434.5" width="130" height="41" as="geometry"/>
        </mxCell>
        <mxCell id="HENk6OUo9Yx7RdCasyFM-8" value="" style="rounded=1;whiteSpace=wrap;html=1;fontStyle=1;fontSize=14;fillColor=#d5e8d4;strokeColor=#82b366;" vertex="1" parent="1">
          <mxGeometry x="188" y="530" width="462" height="210" as="geometry"/>
        </mxCell>
        <mxCell id="HENk6OUo9Yx7RdCasyFM-9" value="DB Proxy&lt;br&gt;sjprdbpxy01~03" style="rounded=1;whiteSpace=wrap;html=1;fontSize=12;fontStyle=1" vertex="1" parent="1">
          <mxGeometry x="366.5" y="570" width="101" height="50" as="geometry"/>
        </mxCell>
        <mxCell id="HENk6OUo9Yx7RdCasyFM-10" value="DB&lt;br&gt;sjprmcmydb01~05" style="rounded=1;whiteSpace=wrap;html=1;fontSize=12;fontStyle=1" vertex="1" parent="1">
          <mxGeometry x="367.5" y="670" width="100" height="50" as="geometry"/>
        </mxCell>
        <mxCell id="HENk6OUo9Yx7RdCasyFM-21" value="" style="endArrow=classic;html=1;fontSize=12;" edge="1" parent="1" target="HENk6OUo9Yx7RdCasyFM-5">
          <mxGeometry width="50" height="50" relative="1" as="geometry">
            <mxPoint x="414" y="233" as="sourcePoint"/>
            <mxPoint x="420" y="260" as="targetPoint"/>
          </mxGeometry>
        </mxCell>
        <mxCell id="HENk6OUo9Yx7RdCasyFM-23" value="" style="endArrow=classic;html=1;fontSize=12;entryX=0.5;entryY=0;entryDx=0;entryDy=0;" edge="1" parent="1" target="HENk6OUo9Yx7RdCasyFM-7">
          <mxGeometry width="50" height="50" relative="1" as="geometry">
            <mxPoint x="414" y="343.5" as="sourcePoint"/>
            <mxPoint x="414.7934782608695" y="416.5" as="targetPoint"/>
          </mxGeometry>
        </mxCell>
        <mxCell id="HENk6OUo9Yx7RdCasyFM-26" value="" style="endArrow=classic;html=1;fontSize=12;entryX=0.5;entryY=0;entryDx=0;entryDy=0;" edge="1" parent="1">
          <mxGeometry width="50" height="50" relative="1" as="geometry">
            <mxPoint x="414.5" y="475.5" as="sourcePoint"/>
            <mxPoint x="415.5" y="566.5" as="targetPoint"/>
          </mxGeometry>
        </mxCell>
        <mxCell id="HENk6OUo9Yx7RdCasyFM-27" value="" style="endArrow=classic;html=1;fontSize=12;" edge="1" parent="1">
          <mxGeometry width="50" height="50" relative="1" as="geometry">
            <mxPoint x="414" y="620" as="sourcePoint"/>
            <mxPoint x="415" y="670" as="targetPoint"/>
          </mxGeometry>
        </mxCell>
      </root>
    </mxGraphModel>
  </diagram>
</mxfile>
